HIERARCHY
ROOT Hips
{
	OFFSET 0.000000 0.000000 0.000000 
	CHANNELS 6 Xposition Yposition Zposition Zrotation Yrotation Xrotation
	JOINT LeftUpLeg
	{
		OFFSET 1.363060 -1.794630 0.839290 
		CHANNELS 3 Zrotation Yrotation Xrotation
		JOINT LeftLeg
		{
			OFFSET 2.448110 -6.726130 0.000000 
			CHANNELS 3 Zrotation Yrotation Xrotation
			JOINT LeftFoot
			{
				OFFSET 2.562200 -7.039590 0.000000 
				CHANNELS 3 Zrotation Yrotation Xrotation
				JOINT LeftToeBase
				{
					OFFSET 0.157640 -0.433110 2.322550 
					CHANNELS 3 Zrotation Yrotation Xrotation
					End Site
					{
						OFFSET 0.000000 0.000000 0.000000 
					}
				}
			}
		}
	}
	JOINT RightUpLeg
	{
		OFFSET -1.305520 -1.794630 0.839290 
		CHANNELS 3 Zrotation Yrotation Xrotation
		JOINT RightLeg
		{
			OFFSET -2.542530 -6.985550 0.000000 
			CHANNELS 3 Zrotation Yrotation Xrotation
			JOINT RightFoot
			{
				OFFSET -2.568260 -7.056230 0.000000 
				CHANNELS 3 Zrotation Yrotation Xrotation
				JOINT RightToeBase
				{
					OFFSET -0.164730 -0.452590 2.363150 
					CHANNELS 3 Zrotation Yrotation Xrotation
					End Site
					{
						OFFSET 0.000000 0.000000 0.000000 
					}
				}
			}
		}
	}
	JOINT Spine
	{
		OFFSET 0.028270 2.035590 -0.193380 
		CHANNELS 3 Zrotation Yrotation Xrotation
		JOINT Spine1
		{
			OFFSET 0.056720 2.048850 -0.042750 
			CHANNELS 3 Zrotation Yrotation Xrotation
			JOINT Neck1
			{
				OFFSET -0.054170 1.746240 0.172020 
				CHANNELS 3 Zrotation Yrotation Xrotation
				JOINT Head
				{
					OFFSET 0.104070 1.761360 -0.123970 
					CHANNELS 3 Zrotation Yrotation Xrotation
					End Site
					{
						OFFSET 0.000000 0.000000 0.000000 
					}
				}
			}
			JOINT LeftArm
			{
				OFFSET 3.362410 1.200890 -0.311210 
				CHANNELS 3 Zrotation Yrotation Xrotation
				JOINT LeftForeArm
				{
					OFFSET 4.983000 -0.000000 -0.000000 
					CHANNELS 3 Zrotation Yrotation Xrotation
					JOINT LeftHand
					{
						OFFSET 3.483560 -0.000000 -0.000000 
						CHANNELS 3 Zrotation Yrotation Xrotation
						JOINT LeftHandIndex1
						{
							OFFSET 0.715260 -0.000000 -0.000000 
							CHANNELS 3 Zrotation Yrotation Xrotation
							End Site
							{
								OFFSET 0.000000 0.000000 0.000000 
							}
						}
					}
				}
			}
			JOINT RightArm
			{
				OFFSET -3.136600 1.374050 -0.404650 
				CHANNELS 3 Zrotation Yrotation Xrotation
				JOINT RightForeArm
				{
					OFFSET -5.241900 -0.000000 -0.000000 
					CHANNELS 3 Zrotation Yrotation Xrotation
					JOINT RightHand
					{
						OFFSET -3.444170 -0.000000 -0.000000 
						CHANNELS 3 Zrotation Yrotation Xrotation
						JOINT RightHandIndex1
						{
							OFFSET -0.622530 -0.000000 -0.000000 
							CHANNELS 3 Zrotation Yrotation Xrotation
							End Site
							{
								OFFSET 0.000000 0.000000 0.000000 
							}
						}
					}
				}
			}
		}
	}
}
MOTION
Frames: 10
Frame Time: 0.041667
1.064264 18.457885 8.200598 -6.175445 23.766093 13.747641 -17.627200 -42.939954 5.086162 -2.818073 -1.749276 -3.887044 -8.550326 31.053750 2.286236 0.375600 -3.936100 -10.897000 20.216754 29.366752 7.289142 4.791756 1.322332 0.449782 8.843457 -34.489013 -36.442070 -2.122500 -9.116700 26.161000 -15.813547 9.501462 -10.506132 -4.055035 5.321261 -20.956695 25.451250 -16.743638 14.475715 4.329900 -6.550700 6.985000 -73.634482 3.170852 51.292819 53.850115 -49.280056 -33.614897 -1.306948 -0.494168 -12.998851 -7.125000 0.000000 0.000000 56.109463 76.266437 23.665222 -31.748933 25.481343 -10.701427 1.672705 -1.307018 57.333282 7.125000 0.000000 0.000000 
1.059958 18.458830 8.205115 -5.966974 23.112821 13.863694 -17.992687 -43.375358 5.554858 -2.826715 -1.761392 -3.955254 -8.865328 31.921444 1.649270 0.339400 -3.744000 -10.357400 20.179803 30.197182 7.790073 4.812645 1.416559 0.242221 8.807929 -34.612690 -36.848737 -2.153100 -9.178000 26.353700 -16.314326 9.485998 -10.117384 -3.818037 5.396780 -20.280080 25.556006 -16.708945 14.127042 4.345800 -6.543800 6.990000 -73.550376 2.577119 51.425865 53.689512 -49.317013 -33.421991 -1.320114 -0.470343 -12.798419 -7.125000 0.000000 0.000000 61.258613 80.840205 25.122886 -31.131389 26.058973 -10.353620 1.903578 -1.008099 56.758783 7.125000 0.000000 0.000000 
1.052921 18.460405 8.209421 -5.969513 22.674476 13.865170 -18.095922 -43.576271 5.849239 -2.829627 -1.757723 -3.974975 -9.054873 32.421861 1.235440 0.314600 -3.605800 -9.970200 20.448676 31.096854 8.431947 4.840553 1.496898 0.067679 8.687577 -34.743081 -37.537235 -2.216300 -9.302700 26.747000 -16.548122 9.365652 -10.394734 -3.446477 5.477245 -18.816708 25.794612 -16.667848 13.577753 4.362500 -6.540000 6.953100 -73.539787 1.896872 51.323911 53.668297 -49.270992 -33.324977 -1.317935 -0.459945 -12.701395 -7.125000 0.000000 0.000000 68.280964 85.770931 27.349706 -30.211563 28.206441 -10.210292 1.950004 -0.601402 55.069475 7.125000 0.000000 0.000000 
1.046724 18.461351 8.214777 -6.068337 22.490499 13.859701 -18.003703 -43.645755 5.959790 -2.828772 -1.758541 -4.000180 -9.147762 32.684545 1.148455 0.311400 -3.587200 -9.918100 20.812525 31.882359 9.003032 4.867568 1.560645 -0.087474 8.518596 -34.829445 -38.294035 -2.299900 -9.464700 27.260100 -16.716963 9.234343 -11.064667 -3.055318 5.567165 -17.500019 26.107496 -16.630394 13.011726 4.397200 -6.553300 6.876300 -73.674730 1.459381 51.045357 53.727686 -49.149518 -33.329986 -1.308537 -0.473226 -12.752967 -7.125000 0.000000 0.000000 74.079694 87.860543 29.284862 -29.615673 30.750680 -10.411490 1.752498 -0.309527 52.959427 7.125000 0.000000 0.000000 
1.043048 18.462191 8.220134 -6.182889 22.511602 13.945319 -17.873001 -43.703706 5.918896 -2.825295 -1.753397 -4.010002 -9.179422 32.795855 1.195118 0.318900 -3.630200 -10.038500 21.061717 32.443184 9.353687 4.889525 1.604993 -0.228758 8.350555 -34.879259 -38.977188 -2.381100 -9.618500 27.749800 -16.537836 9.100030 -12.083494 -2.829017 5.593856 -16.862338 26.095151 -16.563454 12.856905 4.377200 -6.536800 6.845700 -73.909099 1.509977 50.801753 53.826751 -49.066978 -33.404641 -1.309388 -0.491338 -12.874645 -7.125000 0.000000 0.000000 77.681835 87.195703 30.221542 -29.539613 32.424960 -10.748408 1.532020 -0.186652 51.352316 7.125000 0.000000 0.000000 
1.041262 18.462926 8.225490 -6.314508 22.655721 14.026155 -17.731591 -43.842099 5.879082 -2.821331 -1.749069 -4.008945 -9.203667 32.851218 1.146632 0.315200 -3.609300 -9.980000 21.194026 32.580800 9.406875 4.898916 1.623441 -0.304114 8.264624 -34.898067 -39.300531 -2.423100 -9.696700 28.000000 -16.177036 8.998757 -12.827827 -2.765587 5.558804 -16.657407 25.814071 -16.513119 13.043414 4.294000 -6.504900 6.863300 -74.094055 1.746041 50.679178 53.953893 -49.055723 -33.519711 -1.318183 -0.505611 -13.046905 -7.125000 0.000000 0.000000 79.245701 85.947276 30.308256 -29.576031 33.053958 -10.925406 1.412041 -0.166560 50.789338 7.125000 0.000000 0.000000 
1.039792 18.463136 8.233158 -6.607326 22.921611 14.038405 -17.543658 -44.020240 5.900567 -2.822396 -1.776799 -4.054083 -9.243469 32.934330 1.133214 0.320000 -3.636200 -10.055300 21.281471 32.416072 9.215429 4.894253 1.608763 -0.325780 8.252581 -34.886967 -39.299840 -2.438500 -9.725200 28.091500 -14.480300 9.030438 -13.407216 -2.822300 5.439827 -16.383133 25.663706 -16.306941 13.135144 4.284000 -6.419100 6.813100 -74.449409 2.091620 50.400699 53.980515 -49.041326 -33.560134 -1.338272 -0.511690 -13.083856 -7.125000 0.000000 0.000000 79.387685 84.854676 30.483755 -29.474266 32.969713 -10.875795 1.343792 -0.201423 51.512705 7.125000 0.000000 0.000000 
1.037797 18.462611 8.242085 -7.069103 23.323122 13.968399 -17.432908 -44.193360 5.969664 -2.836361 -1.838429 -4.108495 -9.289022 33.011274 1.188832 0.327600 -3.678700 -10.174500 21.268357 32.305602 8.948664 4.883520 1.574589 -0.366604 8.264926 -34.905411 -39.278002 -2.455400 -9.756400 28.191400 -10.112419 9.338330 -13.767350 -3.016992 5.185498 -15.857341 25.285893 -15.783392 13.231457 4.284800 -6.211100 6.698300 -75.315889 2.526035 49.648104 53.808435 -48.952394 -33.441639 -1.372145 -0.506349 -12.883363 -7.125000 0.000000 0.000000 78.746427 83.720606 31.626506 -29.320082 32.577963 -10.735293 1.292738 -0.244907 52.640527 7.125000 0.000000 0.000000 
1.036116 18.462086 8.249542 -6.661919 23.164724 14.216139 -17.421724 -44.480786 5.976899 -2.815900 -1.822523 -4.193157 -9.365598 33.316347 1.179618 0.337600 -3.733600 -10.328500 21.126088 32.003597 8.761026 4.881300 1.600850 -0.333667 8.352979 -34.878477 -38.922803 -2.407300 -9.667300 27.906100 -14.037467 8.985262 -13.234189 -2.824204 5.361706 -16.763055 25.643153 -16.215985 13.294341 4.311000 -6.376300 6.786600 -74.624430 2.513758 50.500104 53.810298 -48.995135 -33.402612 -1.374356 -0.469287 -13.089730 -7.125000 0.000000 0.000000 74.282670 81.746729 28.505687 -30.147161 31.282310 -10.913689 1.391657 -0.432223 53.115539 7.125000 0.000000 0.000000 
1.034436 18.463556 8.254479 -6.483535 23.155731 14.338442 -17.553772 -44.903362 6.206729 -2.809320 -1.834736 -4.263975 -9.508233 33.751121 1.079314 0.354800 -3.826700 -10.589700 20.893946 31.460835 8.346559 4.861455 1.570901 -0.238611 8.475416 -34.755113 -38.278920 -2.337000 -9.535300 27.484700 -15.338728 8.849848 -13.036770 -2.784769 5.395372 -17.365249 25.671330 -16.391740 13.519258 4.305200 -6.433000 6.852300 -74.419799 2.707210 50.817125 53.776648 -48.982831 -33.362019 -1.373288 -0.460289 -13.198262 -7.125000 0.000000 0.000000 71.113406 79.403136 27.306922 -30.649268 30.401402 -11.012464 1.444522 -0.543076 52.707538 7.125000 0.000000 0.000000 
